<?xml version="1.0" encoding="UTF-8"?><svg id="a" xmlns="http://www.w3.org/2000/svg" xmlns:xlink="http://www.w3.org/1999/xlink" viewBox="0 0 3600 3590.01"><defs><style>.r{fill:#fff;}.r,.s,.t,.u,.v,.w,.x,.y,.z,.aa,.ab,.ac,.ad,.ae,.af,.ag,.ah,.ai,.aj{fill-rule:evenodd;stroke-width:0px;}.s{fill:url(#p);}.t{fill:url(#d);}.u{fill:url(#m);}.v{fill:url(#k);}.w{fill:url(#e);}.x{fill:url(#c);}.y{fill:url(#j);}.z{fill:url(#h);}.aa{fill:#5aa86a;}.ab{fill:url(#q);}.ac{fill:url(#n);}.ad{fill:url(#l);}.ae{fill:#aa3e35;}.af{fill:url(#f);}.ag{fill:url(#i);}.ah{fill:url(#g);}.ai{fill:url(#b);}.aj{fill:url(#o);}</style><linearGradient id="b" x1="3162.84" y1="3916.43" x2="2403.34" y2="2575.49" gradientUnits="userSpaceOnUse"><stop offset="0" stop-color="#f68f71"/><stop offset="0" stop-color="#f68f71"/><stop offset=".41" stop-color="#dc5242"/><stop offset=".99" stop-color="#a72c32"/><stop offset="1" stop-color="#a72c32"/></linearGradient><linearGradient id="c" x1="3541.21" y1="2790.1" x2="2562.42" y2="2133.28" gradientUnits="userSpaceOnUse"><stop offset="0" stop-color="#9b3f34"/><stop offset="0" stop-color="#9b3f34"/><stop offset=".99" stop-color="#a23e36"/><stop offset="1" stop-color="#a23e36"/></linearGradient><linearGradient id="d" x1="2758.08" y1="3957.1" x2="1779.29" y2="3300.27" xlink:href="#c"/><linearGradient id="e" x1="703.11" y1="2314.68" x2="854.84" y2="3300.82" gradientUnits="userSpaceOnUse"><stop offset="0" stop-color="#fff"/><stop offset="0" stop-color="#fff"/><stop offset=".23" stop-color="#e28b6f"/><stop offset=".46" stop-color="#da6144"/><stop offset=".99" stop-color="#a51e22"/><stop offset="1" stop-color="#a51e22"/></linearGradient><linearGradient id="f" x1="1746.72" y1="1393.82" x2="1802.63" y2="2400.25" gradientUnits="userSpaceOnUse"><stop offset="0" stop-color="#fff"/><stop offset="0" stop-color="#fff"/><stop offset=".23" stop-color="#e08a6d"/><stop offset=".56" stop-color="#c14435"/><stop offset=".99" stop-color="#b13430"/><stop offset="1" stop-color="#b13430"/></linearGradient><linearGradient id="g" x1="2672.87" y1="463.77" x2="2840.23" y2="1185.02" gradientUnits="userSpaceOnUse"><stop offset="0" stop-color="#fff"/><stop offset="0" stop-color="#fff"/><stop offset=".18" stop-color="#df8063"/><stop offset=".4" stop-color="#c94d37"/><stop offset=".99" stop-color="#b13430"/><stop offset="1" stop-color="#b13430"/></linearGradient><linearGradient id="h" x1="2161.78" y1="209.72" x2="2883.02" y2="-150.9" gradientUnits="userSpaceOnUse"><stop offset="0" stop-color="#fff"/><stop offset="0" stop-color="#fff"/><stop offset=".54" stop-color="#c94838"/><stop offset=".99" stop-color="#c12d2f"/><stop offset="1" stop-color="#c12d2f"/></linearGradient><linearGradient id="i" x1="70.93" y1="2063.29" x2="130.29" y2="2657.63" gradientUnits="userSpaceOnUse"><stop offset="0" stop-color="#fff"/><stop offset="0" stop-color="#fff"/><stop offset=".31" stop-color="#da6548"/><stop offset=".99" stop-color="#c14433"/><stop offset="1" stop-color="#c14433"/></linearGradient><linearGradient id="j" x1="-337.25" y1="2818.31" x2="2453.18" y2="-51.03" gradientUnits="userSpaceOnUse"><stop offset="0" stop-color="#bd2026"/><stop offset="0" stop-color="#bd2026"/><stop offset=".07" stop-color="#fff"/><stop offset=".17" stop-color="#fff"/><stop offset=".27" stop-color="#c95841"/><stop offset=".33" stop-color="#983734"/><stop offset=".46" stop-color="#ae4231"/><stop offset=".72" stop-color="#b93e2f"/><stop offset=".99" stop-color="#de4e2b"/><stop offset="1" stop-color="#de4e2b"/></linearGradient><linearGradient id="k" x1="1800.21" y1="3107.65" x2="959.78" y2="2900.22" gradientUnits="userSpaceOnUse"><stop offset="0" stop-color="#9f3633"/><stop offset="0" stop-color="#9f3633"/><stop offset=".54" stop-color="#a73532"/><stop offset=".99" stop-color="#b13439"/><stop offset="1" stop-color="#b13439"/></linearGradient><linearGradient id="l" x1="3243.79" y1="2098.87" x2="2497.12" y2="1429.65" gradientUnits="userSpaceOnUse"><stop offset="0" stop-color="#923c36"/><stop offset="0" stop-color="#923c36"/><stop offset=".99" stop-color="#aa3531"/><stop offset="1" stop-color="#aa3531"/></linearGradient><linearGradient id="m" x1="3518.11" y1="871" x2="3146.17" y2="473.37" gradientUnits="userSpaceOnUse"><stop offset="0" stop-color="#8d3e36"/><stop offset="0" stop-color="#8d3e36"/><stop offset=".99" stop-color="#aa3e37"/><stop offset="1" stop-color="#aa3e37"/></linearGradient><radialGradient id="n" cx="2613.38" cy="1442.51" fx="2613.38" fy="1442.51" r="915.04" gradientUnits="userSpaceOnUse"><stop offset="0" stop-color="#b13430"/><stop offset="0" stop-color="#b13430"/><stop offset=".99" stop-color="#923934"/><stop offset="1" stop-color="#923934"/></radialGradient><radialGradient id="o" cx="1346.21" cy="2648.26" fx="1346.21" fy="2648.26" r="1216.42" gradientUnits="userSpaceOnUse"><stop offset="0" stop-color="#ae3531"/><stop offset="0" stop-color="#ae3531"/><stop offset=".99" stop-color="#953a36"/><stop offset="1" stop-color="#953a36"/></radialGradient><linearGradient id="p" x1="484.61" y1="3585.63" x2="181.5" y2="2557.27" gradientUnits="userSpaceOnUse"><stop offset="0" stop-color="#994939"/><stop offset="0" stop-color="#994939"/><stop offset=".43" stop-color="#aa3a36"/><stop offset=".99" stop-color="#b83936"/><stop offset="1" stop-color="#b83936"/></linearGradient><linearGradient id="q" x1="2809.84" y1="178.04" x2="3489.4" y2="478" gradientUnits="userSpaceOnUse"><stop offset="0" stop-color="#b9392f"/><stop offset="0" stop-color="#b9392f"/><stop offset=".44" stop-color="#a23a36"/><stop offset=".99" stop-color="#8d463a"/><stop offset="1" stop-color="#8d463a"/></linearGradient></defs><polygon class="ai" points="733.7 3590.01 3395.04 3409.4 3600 725.89 2789.08 2369.54 733.7 3590.01"/><polygon class="x" points="2547.6 2651.53 3399.4 3407.58 3170.65 1828.8 2547.6 2651.53"/><polygon class="t" points="742.6 3586.55 3402.49 3407.58 1726.68 3276.03 742.6 3586.55"/><polygon class="w" points="242.39 2412.42 744.97 3586.92 1163.6 2215.45 242.39 2412.42"/><polygon class="af" points="1059.85 2180.57 2547.42 2656.07 2162.22 1147.25 1059.85 2180.57"/><polygon class="ah" points="2180.39 1255.54 3512.6 1168.51 2470.56 317.43 2180.39 1255.54"/><polygon class="z" points="2025.76 9.45 3025.29 13.99 2412.42 352.68 2025.76 9.45"/><polygon class="ag" points="49.06 1846.42 0 2872.48 256.74 2404.24 49.06 1846.42"/><path class="r" d="M35.25,1828.8l208.95,592.7,907.95-203.68,1036.59-963.37,292.54-929.21L2020.67,0l-783.12,293.08c-246.75,229.49-725.52,683.55-742.79,692.09-17.08,8.72-316.16,573.99-459.52,843.63Z"/><path class="y" d="M768.95,764.04C1303.69,233.85,1993.06-79.4,2257.61,187.51c264.37,266.92-15.99,915.58-550.73,1445.6-534.74,530.02-1215.57,860.53-1479.94,593.61-264.55-266.73,7.27-932.66,542.01-1462.68Z"/><path class="v" d="M744.97,3586.37l415.36-1375.82,1379.46,443.16c-498.76,467.69-1053.49,863.07-1794.82,932.66Z"/><path class="ad" d="M2190.56,1251.72l354.13,1402.72c416.64-438.08,790.57-909.04,973.72-1491.57l-1327.86,88.85Z"/><path class="u" d="M3514.78,1169.96c141.73-427.72,174.43-1041.32-493.86-1155.24l-548.37,302.89,1042.22,852.35Z"/><path class="ae" d="M0,2866.3c19.62,705.9,528.93,716.44,745.87,722.62l-501.13-1170.32L0,2866.3Z"/><path class="ac" d="M2192.56,1253.9c320.15,196.78,965.37,591.97,978.45,599.24,20.35,11.45,278.18-434.81,336.69-687l-1315.14,87.76Z"/><path class="aj" d="M1159.78,2210.55l555.27,1071.3c328.33-178.06,585.43-395.01,820.92-627.41l-1376.19-443.89Z"/><path class="s" d="M242.57,2420.05l-78.68,936.84c148.45,202.78,352.68,220.4,566.9,204.59-154.99-385.75-464.6-1157.06-488.22-1141.43Z"/><path class="ab" d="M2469.29,319.97l1103.09,154.81c-58.87-249.47-239.66-410.46-547.82-460.79l-555.27,305.98Z"/><polygon class="aa" points="555.14 90.43 1622.95 853.16 555.14 1615.89 555.14 90.43"/></svg>
